<svg width="41" height="27" viewBox="0 0 41 27" fill="none" xmlns="http://www.w3.org/2000/svg">
<path d="M37.5214 26.8166H3.47859C2.55627 26.8157 1.67197 26.4489 1.01979 25.7968C0.367614 25.1446 0.000848111 24.2603 0 23.338L0 3.47859C0.000848111 2.55627 0.367614 1.67197 1.01979 1.01979C1.67197 0.367614 2.55627 0.000848111 3.47859 0H37.5214C38.4437 0.000848111 39.328 0.367614 39.9802 1.01979C40.6324 1.67197 40.9992 2.55627 41 3.47859V23.338C40.9992 24.2603 40.6324 25.1446 39.9802 25.7968C39.328 26.4489 38.4437 26.8157 37.5214 26.8166ZM3.47859 1.28125C2.89608 1.2821 2.33767 1.51387 1.92577 1.92577C1.51387 2.33767 1.2821 2.89608 1.28125 3.47859V23.338C1.2821 23.9205 1.51387 24.4789 1.92577 24.8908C2.33767 25.3027 2.89608 25.5345 3.47859 25.5353H37.5214C38.1039 25.5345 38.6623 25.3027 39.0742 24.8908C39.4861 24.4789 39.7179 23.9205 39.7188 23.338V3.47859C39.7179 2.89608 39.4861 2.33767 39.0742 1.92577C38.6623 1.51387 38.1039 1.2821 37.5214 1.28125H3.47859Z" fill="#0268EC"/>
<path d="M11.9148 15.2789H6.95312C6.61332 15.2789 6.28743 15.1439 6.04714 14.9037C5.80686 14.6634 5.67188 14.3375 5.67188 13.9977V10.0771C5.67188 9.73725 5.80686 9.41136 6.04714 9.17108C6.28743 8.9308 6.61332 8.79581 6.95312 8.79581H11.9148C12.2546 8.79581 12.5805 8.9308 12.8207 9.17108C13.061 9.41136 13.196 9.73725 13.196 10.0771V13.9977C13.196 14.3375 13.061 14.6634 12.8207 14.9037C12.5805 15.1439 12.2546 15.2789 11.9148 15.2789ZM6.95312 10.0771V13.9977H11.9148V10.0771H6.95312Z" fill="#0268EC"/>
<path d="M20.1281 21.1406H6.22656C6.05666 21.1406 5.89371 21.0731 5.77357 20.953C5.65343 20.8329 5.58594 20.6699 5.58594 20.5C5.58594 20.3301 5.65343 20.1671 5.77357 20.047C5.89371 19.9269 6.05666 19.8594 6.22656 19.8594H20.1281C20.298 19.8594 20.461 19.9269 20.5811 20.047C20.7013 20.1671 20.7688 20.3301 20.7688 20.5C20.7688 20.6699 20.7013 20.8329 20.5811 20.953C20.461 21.0731 20.298 21.1406 20.1281 21.1406Z" fill="#0268EC"/>
<path d="M27.0033 21.1406H22.9609C22.791 21.1406 22.6281 21.0731 22.5079 20.953C22.3878 20.8329 22.3203 20.6699 22.3203 20.5C22.3203 20.3301 22.3878 20.1671 22.5079 20.047C22.6281 19.9269 22.791 19.8594 22.9609 19.8594H27.0033C27.1732 19.8594 27.3361 19.9269 27.4563 20.047C27.5764 20.1671 27.6439 20.3301 27.6439 20.5C27.6439 20.6699 27.5764 20.8329 27.4563 20.953C27.3361 21.0731 27.1732 21.1406 27.0033 21.1406Z" fill="#0268EC"/>
<path d="M26.4456 14.6895C26.3279 14.6896 26.2125 14.6572 26.1121 14.596C26.0116 14.5348 25.9299 14.4471 25.876 14.3426C25.822 14.238 25.7979 14.1206 25.8063 14.0033C25.8147 13.886 25.8552 13.7732 25.9234 13.6773C26.2582 13.1996 26.4378 12.6303 26.4378 12.047C26.4378 11.4636 26.2582 10.8943 25.9234 10.4166C25.8253 10.2777 25.7864 10.1055 25.8152 9.93789C25.8441 9.77029 25.9383 9.62101 26.0772 9.52289C26.2161 9.42477 26.3883 9.38585 26.5559 9.41468C26.7235 9.44352 26.8728 9.53775 26.9709 9.67664C27.4578 10.3711 27.719 11.1988 27.719 12.047C27.719 12.8952 27.4578 13.7228 26.9709 14.4173C26.9116 14.5015 26.833 14.5703 26.7415 14.6177C26.6501 14.6651 26.5486 14.6897 26.4456 14.6895Z" fill="#0268EC"/>
<path d="M28.7577 15.8619C28.644 15.8602 28.5331 15.8269 28.4374 15.7658C28.2931 15.6765 28.1901 15.5336 28.1511 15.3684C28.112 15.2033 28.1401 15.0294 28.2292 14.8849C28.7569 14.0289 29.0364 13.043 29.0364 12.0373C29.0364 11.0317 28.7569 10.0458 28.2292 9.18977C28.1395 9.04535 28.1109 8.87124 28.1497 8.70575C28.1884 8.54025 28.2913 8.39693 28.4358 8.3073C28.5073 8.26293 28.5868 8.23307 28.6699 8.21943C28.7529 8.2058 28.8378 8.20866 28.9198 8.22784C29.0853 8.26659 29.2286 8.36949 29.3182 8.51391C29.9699 9.57363 30.3149 10.7933 30.3149 12.0373C30.3149 13.2814 29.9699 14.5011 29.3182 15.5608C29.2591 15.6554 29.1763 15.733 29.078 15.7858C28.9796 15.8387 28.8692 15.8649 28.7577 15.8619Z" fill="#0268EC"/>
<path d="M31.1524 17.0983C31.0403 17.0976 30.9303 17.0675 30.8334 17.011C30.7366 16.9545 30.6563 16.8736 30.6005 16.7763C30.5447 16.679 30.5155 16.5688 30.5156 16.4567C30.5158 16.3446 30.5454 16.2345 30.6015 16.1374C31.3292 14.8953 31.7128 13.4817 31.7128 12.0422C31.7128 10.6026 31.3292 9.18904 30.6015 7.94697C30.5317 7.80158 30.5194 7.63524 30.5669 7.48116C30.6144 7.32707 30.7183 7.19656 30.8578 7.11569C30.9973 7.03482 31.1622 7.00953 31.3195 7.04487C31.4768 7.08021 31.615 7.17358 31.7065 7.30635C32.5497 8.74508 32.9942 10.3826 32.9942 12.0502C32.9942 13.7178 32.5497 15.3553 31.7065 16.794C31.6484 16.8883 31.5667 16.9659 31.4696 17.0193C31.3725 17.0726 31.2632 17.0998 31.1524 17.0983Z" fill="#0268EC"/>
<path d="M33.6304 18.3827C33.5179 18.3825 33.4074 18.3527 33.3101 18.2963C33.163 18.2123 33.0552 18.0735 33.0102 17.9102C32.9651 17.747 32.9866 17.5725 33.0699 17.425C34.002 15.7824 34.492 13.926 34.492 12.0374C34.492 10.1487 34.002 8.29232 33.0699 6.6497C32.9849 6.50188 32.9622 6.32637 33.0066 6.16178C33.0511 5.99719 33.1591 5.857 33.3069 5.77204C33.4547 5.68709 33.6302 5.66434 33.7948 5.70879C33.9594 5.75324 34.0996 5.86126 34.1846 6.00907C35.2268 7.84494 35.7747 9.91987 35.7747 12.0309C35.7747 14.142 35.2268 16.217 34.1846 18.0528C34.1296 18.1519 34.0494 18.2346 33.952 18.2926C33.8547 18.3506 33.7437 18.3817 33.6304 18.3827Z" fill="#0268EC"/>
</svg>
