<svg width="34" height="34" viewBox="0 0 34 34" fill="none" xmlns="http://www.w3.org/2000/svg">
<path d="M6 0.5H15.1667C16.6254 0.5 18.0243 1.07946 19.0558 2.11091C20.0872 3.14236 20.6667 4.54131 20.6667 6V21.741L17.3795 18.4538C17.0337 18.1199 16.5706 17.9351 16.0899 17.9393C15.6092 17.9434 15.1494 18.1363 14.8095 18.4762C14.4696 18.8161 14.2768 19.2759 14.2726 19.7566C14.2684 20.2373 14.4532 20.7004 14.7872 21.0462L21.2038 27.4628C21.4602 27.7192 21.7869 27.8937 22.1424 27.9644C22.498 28.0351 22.8666 27.9988 23.2015 27.8601C23.5365 27.7213 23.8228 27.4864 24.0242 27.185C24.2257 26.8836 24.3333 26.5292 24.3333 26.1667V6C24.3363 4.01613 23.6927 2.08534 22.5 0.5H28C29.4587 0.5 30.8576 1.07946 31.8891 2.11091C32.9205 3.14236 33.5 4.54131 33.5 6V28C33.5 29.4587 32.9205 30.8576 31.8891 31.8891C30.8576 32.9205 29.4587 33.5 28 33.5H18.8333C17.3746 33.5 15.9757 32.9205 14.9442 31.8891C13.9128 30.8576 13.3333 29.4587 13.3333 28V12.259L16.6205 15.5462C16.9663 15.8801 17.4294 16.0649 17.9101 16.0607C18.3908 16.0566 18.8506 15.8637 19.1905 15.5238C19.5304 15.1839 19.7232 14.7241 19.7274 14.2434C19.7316 13.7627 19.5468 13.2996 19.2128 12.9538L12.7962 6.53717C12.5398 6.28085 12.2131 6.1063 11.8576 6.0356C11.502 5.96489 11.1334 6.0012 10.7985 6.13992C10.4635 6.27865 10.1772 6.51357 9.97576 6.81499C9.77431 7.11641 9.66674 7.47079 9.66667 7.83333V28C9.66667 30.0643 10.3487 31.9673 11.5 33.5H6C4.54131 33.5 3.14236 32.9205 2.11091 31.8891C1.07946 30.8576 0.5 29.4587 0.5 28V6C0.5 4.54131 1.07946 3.14236 2.11091 2.11091C3.14236 1.07946 4.54131 0.5 6 0.5Z" fill="#6847CE"/>
</svg>
